<svg width="328" height="328" viewBox="0 0 328 328" fill="none" xmlns="http://www.w3.org/2000/svg">
<path d="M164 310.917C245.14 310.917 310.917 245.14 310.917 164C310.917 82.8602 245.14 17.0834 164 17.0834C82.8602 17.0834 17.0834 82.8602 17.0834 164C17.0834 245.14 82.8602 310.917 164 310.917Z" stroke="#F04A00" stroke-width="15" stroke-linecap="round" stroke-linejoin="round"/>
<path d="M164 310.917C245.14 310.917 310.917 245.14 310.917 164C310.917 82.8602 245.14 17.0834 164 17.0834C82.8602 17.0834 17.0834 82.8602 17.0834 164C17.0834 245.14 82.8602 310.917 164 310.917Z" stroke="#F04A00" stroke-width="15" stroke-linecap="round" stroke-linejoin="round"/>
<path d="M113.051 113.276C70.9026 155.615 53.464 213.097 60.3451 268.119C115.388 274.754 172.794 257.056 214.949 214.724C257.097 172.384 274.536 114.902 267.655 59.8805C212.612 53.2521 155.205 70.9436 113.051 113.276Z" stroke="#F04A00" stroke-width="15" stroke-linecap="round" stroke-linejoin="round"/>
<path d="M214.724 113.051C172.384 70.9026 114.902 53.464 59.8805 60.3451C53.2454 115.388 70.9437 172.794 113.276 214.949C155.609 257.097 213.097 274.536 268.119 267.655C274.748 212.612 257.056 155.205 214.724 113.051Z" stroke="#F04A00" stroke-width="15" stroke-linecap="round" stroke-linejoin="round"/>
</svg>
